HIERARCHY
ROOT Hips
{
	OFFSET 52.470699 -5.774015 92.793404
	CHANNELS 6 Xposition Yposition Zposition Xrotation Yrotation Zrotation
	JOINT spine
	{
		OFFSET 0.000000 -0.448574 7.800591
		CHANNELS 3 Xrotation Yrotation Zrotation
		JOINT spine1
		{
			OFFSET 0.000000 -0.000002 10.136398
			CHANNELS 3 Xrotation Yrotation Zrotation
			JOINT spine2
			{
				OFFSET 0.000000 -0.000001 9.712509
				CHANNELS 3 Xrotation Yrotation Zrotation
				JOINT Neck
				{
					OFFSET 0.000000 -1.188874 24.936096
					CHANNELS 3 Xrotation Yrotation Zrotation
					JOINT Head
					{
						OFFSET 0.000000 -0.000001 7.533844
						CHANNELS 3 Xrotation Yrotation Zrotation
						End Site
						{
							OFFSET 0.000000 6.014017 18.236099
						}
					}
				}
				JOINT RightShoulder
				{
					OFFSET -4.089649 0.569455 10.488800
					CHANNELS 3 Xrotation Yrotation Zrotation
					JOINT RightArm
					{
						OFFSET 0.000000 -0.000002 13.757004
						CHANNELS 3 Xrotation Yrotation Zrotation
						JOINT RightArmRoll
						{
							OFFSET 0.000000 -0.000001 6.944778
							CHANNELS 3 Xrotation Yrotation Zrotation
							JOINT RightForeArm
							{
								OFFSET 0.000000 -0.000003 20.227692
								CHANNELS 3 Xrotation Yrotation Zrotation
								JOINT RightForeArmRoll
								{
									OFFSET 0.000000 -0.000001 7.793121
									CHANNELS 3 Xrotation Yrotation Zrotation
									JOINT RightHand
									{
										OFFSET 0.000000 -0.000003 15.639099
										CHANNELS 3 Xrotation Yrotation Zrotation
										End Site
										{
											OFFSET 0.000000 0.000000 0.100006
										}
									}
								}
							}
						}
					}
				}
				JOINT LeftShoulder
				{
					OFFSET 4.089649 0.569455 10.488800
					CHANNELS 3 Xrotation Yrotation Zrotation
					JOINT LeftArm
					{
						OFFSET 0.000000 -0.000002 13.757004
						CHANNELS 3 Xrotation Yrotation Zrotation
						JOINT LeftArmRoll
						{
							OFFSET 0.000000 -0.000001 6.944778
							CHANNELS 3 Xrotation Yrotation Zrotation
							JOINT LeftForeArm
							{
								OFFSET 0.000000 -0.000003 20.227692
								CHANNELS 3 Xrotation Yrotation Zrotation
								JOINT LeftForeArmRoll
								{
									OFFSET 0.000000 -0.000001 7.793121
									CHANNELS 3 Xrotation Yrotation Zrotation
									JOINT LeftHand
									{
										OFFSET 0.000000 -0.000003 15.639099
										CHANNELS 3 Xrotation Yrotation Zrotation
										End Site
										{
											OFFSET 0.000000 0.000000 0.100006
										}
									}
								}
							}
						}
					}
				}
			}
		}
	}
	JOINT RightUpLeg
	{
		OFFSET -6.914158 1.063581 -1.267883
		CHANNELS 3 Xrotation Yrotation Zrotation
		JOINT RightUpLegRoll
		{
			OFFSET 0.000000 -0.000003 18.337799
			CHANNELS 3 Xrotation Yrotation Zrotation
			JOINT RightLeg
			{
				OFFSET 0.000000 0.000004 -22.708504
				CHANNELS 3 Xrotation Yrotation Zrotation
				JOINT RightLegRoll
				{
					OFFSET 0.000000 -0.000004 22.782799
					CHANNELS 3 Xrotation Yrotation Zrotation
					JOINT RightFoot
					{
						OFFSET 0.000000 -0.000003 18.962898
						CHANNELS 3 Xrotation Yrotation Zrotation
						JOINT RightToeBase
						{
							OFFSET 0.000000 -0.000002 15.852005
							CHANNELS 3 Xrotation Yrotation Zrotation
							End Site
							{
								OFFSET 0.006718 0.884892 7.677017
							}
						}
					}
				}
			}
		}
	}
	JOINT LeftUpLeg
	{
		OFFSET 6.914158 1.063581 -1.267883
		CHANNELS 3 Xrotation Yrotation Zrotation
		JOINT LeftUpLegRoll
		{
			OFFSET 0.000000 -0.000003 18.337898
			CHANNELS 3 Xrotation Yrotation Zrotation
			JOINT LeftLeg
			{
				OFFSET 0.000000 -0.000003 22.708405
				CHANNELS 3 Xrotation Yrotation Zrotation
				JOINT LeftLegRoll
				{
					OFFSET 0.000000 -0.000004 22.993393
					CHANNELS 3 Xrotation Yrotation Zrotation
					JOINT LeftFoot
					{
						OFFSET 0.000000 -0.000003 18.752197
						CHANNELS 3 Xrotation Yrotation Zrotation
						JOINT LeftToeBase
						{
							OFFSET 0.000000 -0.000002 15.852005
							CHANNELS 3 Xrotation Yrotation Zrotation
							End Site
							{
								OFFSET -0.030113 0.884891 7.677017
							}
						}
					}
				}
			}
		}
	}
}
MOTION
Frames: 5
Frame Time: 0.041667
53.233200 -9.018406 91.838089 -6.152621 1.795236 -23.150511 0.360819 0.054499 0.170758 4.724270 0.116971 0.340475 6.369354 0.121041 0.339047 18.117647 -4.883686 8.567305 -17.064049 12.137752 9.056955 -20.436519 -72.827746 -24.014547 113.635305 -107.487787 57.163250 -0.000001 0.000001 0.000001 118.158926 17.447460 -41.223805 0.000005 -0.000002 -3.000000 -5.000210 -7.998733 0.000156 -4.327223 48.994429 4.094756 263.307344 129.582144 -287.635494 0.000003 -0.000000 -0.000001 110.489484 1.406033 -2.687143 -0.000004 -0.000009 3.000002 -5.000337 7.999031 -0.000166 2.886325 -178.755586 -0.256494 -179.999991 0.000005 -1.291994 154.086103 1.312359 -0.659434 -0.000000 0.000003 1.364536 86.339636 6.372294 2.482933 25.655459 -7.347490 0.298244 -12.774832 -184.638824 0.228439 -0.000002 -0.000005 -1.223809 -25.647184 6.497664 2.118590 -0.000003 0.000002 -0.481101 70.530220 -7.127267 -1.390288 25.778403 7.355620 -0.038289 
53.237999 -9.006248 91.848183 -6.126774 1.834847 -23.335678 0.361446 0.050121 0.163956 4.725548 0.107423 0.326952 6.370631 0.111332 0.325636 18.139721 -5.269743 8.702900 -16.996897 12.580118 9.205962 -20.664582 -72.994334 -24.262505 114.725786 -107.991595 58.590920 -0.000003 0.000000 -0.000000 118.404498 17.441399 -41.443249 0.000005 -0.000001 -3.000003 -5.000209 -7.998733 0.000158 -4.289407 48.631309 4.007280 263.021023 130.064383 -287.610168 0.000006 0.000000 0.000002 109.611388 1.365394 -2.766994 -0.000003 -0.000009 3.000000 -5.000334 7.999027 -0.000166 2.826354 -178.753536 -0.268029 -179.999991 0.000005 -1.291991 154.076213 1.320334 -0.657288 0.000000 0.000003 1.365232 86.312943 6.372309 2.483021 25.650413 -7.347495 0.290613 -12.767634 -184.694544 0.183672 -0.000002 -0.000005 -1.224108 -25.661610 6.512654 2.123939 -0.000003 0.000002 -0.481169 70.548047 -7.127869 -1.386648 25.787804 7.355614 -0.039634 
53.248001 -8.993336 91.844505 -6.100988 1.874371 -23.519692 0.362446 0.045554 0.157370 4.727567 0.097483 0.313863 6.372649 0.101235 0.312669 18.157774 -5.647277 8.835610 -16.927348 13.013923 9.350781 -20.887128 -73.153881 -24.503999 115.717652 -108.487474 59.933995 -0.000001 -0.000001 0.000000 118.642367 17.428906 -41.646778 0.000005 -0.000002 -3.000001 -5.000211 -7.998735 0.000153 -4.255144 48.268551 3.923901 262.743143 130.548206 -287.583722 0.000000 -0.000002 0.000001 108.701272 1.320796 -2.836490 -0.000003 -0.000007 3.000002 -5.000335 7.999031 -0.000164 2.766112 -178.752457 -0.279509 -179.999991 0.000005 -1.290997 154.065422 1.328310 -0.656108 0.000000 0.000003 1.365912 86.285992 6.372324 2.483114 25.645468 -7.347498 0.283280 -12.760544 -184.750292 0.139202 -0.000003 -0.000003 -1.224358 -25.675931 6.527479 2.129225 -0.000003 0.000002 -0.481234 70.565662 -7.128424 -1.383014 25.797097 7.355611 -0.040986 
53.268902 -8.985817 91.853493 -6.075381 1.913938 -23.702331 0.363826 0.040783 0.150989 4.730355 0.087145 0.301192 6.375438 0.090746 0.300126 18.173366 -6.016410 8.965621 -16.857404 13.439102 9.491721 -21.104579 -73.306938 -24.739592 116.618582 -108.976939 61.198447 0.000000 0.000002 -0.000003 118.872080 17.409877 -41.835240 0.000005 -0.000001 -2.999998 -5.000210 -7.998733 0.000149 -4.224280 47.906281 3.844476 262.472996 131.034078 -287.555363 0.000004 -0.000001 0.000001 107.758911 1.272711 -2.892844 -0.000004 -0.000009 3.000001 -5.000335 7.999028 -0.000164 2.705807 -178.750395 -0.290791 -179.999991 0.000005 -1.290998 154.053824 1.336275 -0.654894 0.000001 0.000002 1.366582 86.258958 6.372327 2.483323 25.640819 -7.347503 0.276174 -12.753672 -184.806040 0.095111 -0.000000 -0.000006 -1.224560 -25.690548 6.542060 2.134417 -0.000004 0.000002 -0.481312 70.582929 -7.128930 -1.379493 25.806186 7.355616 -0.042318 
53.277000 -8.965875 91.852196 -6.050099 1.953676 -23.883372 0.365613 0.035801 0.144815 4.733945 0.076407 0.288930 6.379027 0.079862 0.287991 18.188148 -6.377247 9.093171 -16.789442 13.855386 9.629187 -21.317715 -73.454272 -24.970156 117.434598 -109.461110 62.388457 -0.000002 0.000000 0.000000 119.092831 17.384677 -42.006548 0.000005 -0.000000 -3.000002 -5.000209 -7.998733 0.000156 -4.196602 47.544404 3.768821 262.209842 131.522614 -287.524326 0.000004 -0.000002 0.000001 106.784421 1.220930 -2.936141 -0.000004 -0.000007 3.000002 -5.000337 7.999029 -0.000166 2.645674 -178.750340 -0.301975 -179.999991 0.000005 -1.290001 154.041434 1.343334 -0.653111 -0.000000 0.000003 1.367208 86.232006 6.372281 2.483526 25.636169 -7.347518 0.269172 -12.747212 -184.861775 0.051461 -0.000005 -0.000004 -1.224718 -25.706056 6.556335 2.139553 -0.000004 0.000002 -0.481415 70.600073 -7.129363 -1.376368 25.815381 7.355613 -0.043653 
